<mxfile host="app.diagrams.net" modified="2023-10-04T14:51:56.052Z" agent="Mozilla/5.0 (Windows NT 10.0; Win64; x64; rv:109.0) Gecko/20100101 Firefox/118.0" version="22.0.2" etag="iarZ3f7oBFdcRH6EuHBi" type="github">
  <diagram id="p4b-i33vNsrOYZvBfTjY" name="Page-1">
    <mxGraphModel dx="1114" dy="612" grid="1" gridSize="10" guides="1" tooltips="1" connect="1" arrows="1" fold="1" page="1" pageScale="1" pageWidth="850" pageHeight="1100" math="0" shadow="0">
      <root>
        <mxCell id="0" />
        <mxCell id="1" parent="0" />
        <mxCell id="1nodj1-vzVdCOWmx9khC-3" style="edgeStyle=orthogonalEdgeStyle;rounded=0;orthogonalLoop=1;jettySize=auto;html=1;exitX=0.5;exitY=1;exitDx=0;exitDy=0;" edge="1" parent="1" source="2" target="1nodj1-vzVdCOWmx9khC-2">
          <mxGeometry relative="1" as="geometry" />
        </mxCell>
        <mxCell id="2" value="#Client&lt;br&gt;" style="rounded=1;whiteSpace=wrap;html=1;" parent="1" vertex="1">
          <mxGeometry x="340" y="160" width="120" height="60" as="geometry" />
        </mxCell>
        <mxCell id="1nodj1-vzVdCOWmx9khC-2" value="#Server" style="rounded=1;whiteSpace=wrap;html=1;" vertex="1" parent="1">
          <mxGeometry x="340" y="280" width="120" height="60" as="geometry" />
        </mxCell>
        <mxCell id="1nodj1-vzVdCOWmx9khC-6" style="edgeStyle=orthogonalEdgeStyle;rounded=0;orthogonalLoop=1;jettySize=auto;html=1;exitX=0.5;exitY=0.5;exitDx=0;exitDy=0;exitPerimeter=0;entryX=0.5;entryY=1;entryDx=0;entryDy=0;" edge="1" parent="1" source="1nodj1-vzVdCOWmx9khC-5" target="1nodj1-vzVdCOWmx9khC-2">
          <mxGeometry relative="1" as="geometry" />
        </mxCell>
        <mxCell id="1nodj1-vzVdCOWmx9khC-5" value="Roque" style="shape=umlActor;verticalLabelPosition=bottom;verticalAlign=top;html=1;outlineConnect=0;" vertex="1" parent="1">
          <mxGeometry x="60" y="290" width="30" height="60" as="geometry" />
        </mxCell>
      </root>
    </mxGraphModel>
  </diagram>
</mxfile>
